<svg width="60" height="26" viewBox="0 0 60 26" fill="none" xmlns="http://www.w3.org/2000/svg">
<path d="M8.29011 20.056C8.04744 20.056 7.79544 20.0467 7.53411 20.028C7.29144 20.0093 7.03011 19.9907 6.75011 19.972L5.93811 14.54C5.82611 13.5693 5.64878 12.8227 5.40611 12.3C5.18211 11.7773 4.91144 11.4133 4.59411 11.208C4.27678 10.984 3.93144 10.872 3.55811 10.872H2.69011V19.552C2.69011 19.7013 2.66211 19.804 2.60611 19.86C2.55011 19.916 2.35411 19.9533 2.01811 19.972C1.70078 19.9907 1.15944 20 0.394109 20V0.848C0.394109 0.698666 0.422109 0.595999 0.478109 0.539999C0.552776 0.483999 0.748776 0.446666 1.06611 0.427998C1.38344 0.409332 1.92478 0.399999 2.69011 0.399999V8.688H3.69811C4.07144 8.688 4.42611 8.52 4.76211 8.184C5.09811 7.82933 5.35011 7.27867 5.51811 6.532L6.86211 0.539999C7.14211 0.465332 7.40344 0.418665 7.64611 0.399999C7.90744 0.381332 8.13144 0.371999 8.31811 0.371999C8.74744 0.371999 9.01811 0.418666 9.13011 0.511999C9.24211 0.605332 9.27011 0.782665 9.21411 1.044L7.73011 6.924C7.56211 7.596 7.31944 8.156 7.00211 8.604C6.70344 9.03333 6.38611 9.35067 6.05011 9.556C6.68478 9.91067 7.19811 10.4893 7.59011 11.292C7.98211 12.0947 8.25278 13.056 8.40211 14.176L9.24211 19.496C9.27944 19.7013 9.23278 19.8507 9.10211 19.944C8.97144 20.0187 8.70078 20.056 8.29011 20.056ZM10.9416 20V6.448C10.9416 6.31733 10.9883 6.21467 11.0816 6.14C11.1936 6.04667 11.399 6 11.6976 6H14.2736C15.0016 6 15.7016 6.084 16.3736 6.252C17.0456 6.40133 17.5963 6.70933 18.0256 7.176C18.455 7.624 18.6696 8.31467 18.6696 9.248C18.6696 9.84533 18.5763 10.3587 18.3896 10.788C18.203 11.2173 17.979 11.5627 17.7176 11.824C17.475 12.0667 17.2136 12.2533 16.9336 12.384C16.6723 12.5147 16.4576 12.5893 16.2896 12.608C16.439 12.6267 16.5883 12.6547 16.7376 12.692C16.9056 12.7107 17.055 12.7387 17.1856 12.776C17.2976 12.8133 17.4563 12.8787 17.6616 12.972C17.8856 13.0467 18.119 13.1867 18.3616 13.392C18.6043 13.5787 18.8096 13.8493 18.9776 14.204C19.1643 14.54 19.2576 14.988 19.2576 15.548C19.2576 16.388 19.0803 17.144 18.7256 17.816C18.371 18.488 17.8296 19.02 17.1016 19.412C16.3736 19.804 15.4403 20 14.3016 20H10.9416ZM14.3296 18.152C15.0763 18.152 15.655 17.928 16.0656 17.48C16.495 17.032 16.7096 16.3413 16.7096 15.408C16.7096 14.96 16.635 14.596 16.4856 14.316C16.355 14.036 16.131 13.8307 15.8136 13.7C15.4963 13.5693 15.0576 13.504 14.4976 13.504C14.2176 13.504 13.9563 13.5133 13.7136 13.532C13.4896 13.5507 13.2936 13.56 13.1256 13.56V18.124C13.3123 18.1427 13.5176 18.152 13.7416 18.152C13.9843 18.152 14.1803 18.152 14.3296 18.152ZM13.1256 11.964C13.3123 11.9827 13.499 11.992 13.6856 11.992C13.891 11.992 14.0963 11.992 14.3016 11.992C14.6563 11.992 14.983 11.9173 15.2816 11.768C15.5803 11.6187 15.823 11.376 16.0096 11.04C16.215 10.6853 16.3176 10.2187 16.3176 9.64C16.3176 9.192 16.2523 8.84667 16.1216 8.604C16.0096 8.34267 15.851 8.156 15.6456 8.044C15.459 7.91333 15.235 7.83867 14.9736 7.82C14.7123 7.80133 14.451 7.792 14.1896 7.792C14.0216 7.792 13.8536 7.792 13.6856 7.792C13.5363 7.792 13.4056 7.80133 13.2936 7.82C13.1816 7.82 13.1256 7.82 13.1256 7.82V11.964ZM25.0043 20.28C23.8843 20.28 23.0256 20.112 22.4283 19.776C21.8309 19.44 21.4109 18.9267 21.1683 18.236C20.9443 17.5453 20.8323 16.6773 20.8323 15.632V6.448C20.8323 6.29867 20.8603 6.196 20.9163 6.14C20.9723 6.084 21.1589 6.04667 21.4763 6.028C21.8123 6.00933 22.3723 6 23.1563 6V15.828C23.1563 16.4253 23.2029 16.9107 23.2963 17.284C23.4083 17.6387 23.5949 17.9 23.8563 18.068C24.1363 18.2173 24.5283 18.292 25.0323 18.292C25.2936 18.292 25.6016 18.2547 25.9563 18.18C26.3109 18.1053 26.6376 17.9747 26.9363 17.788V6.448C26.9363 6.29867 26.9643 6.196 27.0203 6.14C27.0949 6.084 27.2816 6.04667 27.5803 6.028C27.8976 6.00933 28.4389 6 29.2043 6V19.272C28.6629 19.5707 28.0189 19.8133 27.2723 20C26.5256 20.1867 25.7696 20.28 25.0043 20.28ZM33.9871 20.28C33.4084 20.28 32.8671 20.2053 32.3631 20.056C31.8777 19.9253 31.4764 19.7387 31.1591 19.496C30.8604 19.2347 30.7111 18.9547 30.7111 18.656C30.7111 18.5067 30.7391 18.3013 30.7951 18.04C30.8697 17.7787 30.9817 17.5267 31.1311 17.284C31.5231 17.5827 31.9617 17.8347 32.4471 18.04C32.9511 18.2267 33.4457 18.32 33.9311 18.32C34.2671 18.32 34.5937 18.264 34.9111 18.152C35.2471 18.0213 35.5271 17.788 35.7511 17.452C35.9751 17.116 36.0871 16.6213 36.0871 15.968C36.0871 15.1653 35.9004 14.5867 35.5271 14.232C35.1537 13.8773 34.6217 13.7 33.9311 13.7H32.8111C32.4377 13.7 32.2511 13.4947 32.2511 13.084V11.852H34.6311C35.0044 11.4787 35.2564 11.1053 35.3871 10.732C35.5364 10.34 35.6111 9.92933 35.6111 9.5C35.6111 8.92133 35.4711 8.47333 35.1911 8.156C34.9297 7.82 34.5097 7.652 33.9311 7.652C33.4644 7.652 33.0257 7.75467 32.6151 7.96C32.2231 8.14667 31.8684 8.37067 31.5511 8.632C31.4017 8.42667 31.2804 8.22133 31.1871 8.016C31.0937 7.792 31.0471 7.596 31.0471 7.428C31.0471 7.204 31.1497 6.96133 31.3551 6.7C31.5791 6.43867 31.9244 6.21467 32.3911 6.028C32.8577 5.82267 33.4737 5.72 34.2391 5.72C35.4711 5.72 36.3764 6 36.9551 6.56C37.5337 7.12 37.8231 7.88533 37.8231 8.856C37.8231 9.54667 37.6831 10.1907 37.4031 10.788C37.1417 11.3853 36.7684 11.8893 36.2831 12.3C36.9737 12.6547 37.4964 13.112 37.8511 13.672C38.2057 14.2133 38.3831 14.96 38.3831 15.912C38.3831 16.6213 38.2804 17.2467 38.0751 17.788C37.8697 18.3293 37.5711 18.7867 37.1791 19.16C36.8057 19.5333 36.3484 19.8133 35.8071 20C35.2844 20.1867 34.6777 20.28 33.9871 20.28ZM40.7765 25.46C40.3285 25.46 39.9832 25.3107 39.7405 25.012C39.4978 24.7133 39.4325 24.256 39.5445 23.64C40.0112 23.64 40.4032 23.5467 40.7205 23.36C41.0378 23.192 41.3085 22.8747 41.5325 22.408C41.7752 21.96 42.0085 21.3347 42.2325 20.532L38.8165 6.616C38.7792 6.41067 38.7792 6.27067 38.8165 6.196C38.8538 6.10267 39.0405 6.04667 39.3765 6.028C39.7125 6.00933 40.2632 6 41.0285 6L42.5405 12.692C42.6712 13.252 42.7738 13.8213 42.8485 14.4C42.9418 14.9787 43.0165 15.52 43.0725 16.024C43.1472 16.5093 43.2032 16.9013 43.2405 17.2C43.2778 17.4987 43.2965 17.648 43.2965 17.648C43.2965 17.648 43.3152 17.4987 43.3525 17.2C43.3898 16.9013 43.4365 16.5093 43.4925 16.024C43.5485 15.52 43.6138 14.9787 43.6885 14.4C43.7818 13.8027 43.8752 13.224 43.9685 12.664L45.2285 6.672C45.2658 6.42933 45.3218 6.27067 45.3965 6.196C45.4898 6.10267 45.6952 6.04667 46.0125 6.028C46.3485 6.00933 46.8992 6 47.6645 6L44.2205 20.756C43.8285 22.4173 43.3618 23.612 42.8205 24.34C42.2978 25.068 41.6165 25.4413 40.7765 25.46ZM48.8128 20V6.308C48.8128 6.308 48.8314 6.26133 48.8688 6.168C48.9061 6.056 49.0274 6 49.2328 6H51.2768L53.4328 12.132C53.5074 12.3187 53.5821 12.5333 53.6568 12.776C53.7501 13.0187 53.8248 13.2613 53.8808 13.504C53.9554 13.728 54.0114 13.9147 54.0488 14.064C54.1048 14.2133 54.1328 14.288 54.1328 14.288C54.2261 14.0267 54.3381 13.644 54.4688 13.14C54.6181 12.636 54.7768 12.1413 54.9448 11.656L56.7928 6.308C56.8301 6.21467 56.8768 6.14 56.9328 6.084C56.9888 6.028 57.0821 6 57.2128 6H59.3688V19.664C59.3688 19.776 59.3408 19.86 59.2848 19.916C59.2288 19.9533 59.0514 19.9813 58.7528 20C58.4728 20 57.9781 20 57.2688 20L57.2968 15.016C57.2968 14.2133 57.3061 13.336 57.3248 12.384C57.3621 11.4133 57.3994 10.34 57.4368 9.164C57.3434 9.444 57.2221 9.808 57.0728 10.256C56.9234 10.704 56.7648 11.1707 56.5968 11.656C56.4288 12.1413 56.2701 12.5707 56.1208 12.944C55.9901 13.3173 55.9061 13.5693 55.8688 13.7L54.6928 16.752C54.6368 16.8453 54.5434 16.892 54.4128 16.892H53.4608L52.2848 13.7C52.2474 13.6067 52.1728 13.392 52.0608 13.056C51.9674 12.72 51.8461 12.328 51.6968 11.88C51.5474 11.432 51.3888 10.9747 51.2208 10.508C51.0528 10.0413 50.9034 9.62133 50.7728 9.248C50.7728 9.248 50.7728 9.25733 50.7728 9.276C50.7728 9.29467 50.7728 9.304 50.7728 9.304C50.8101 10.368 50.8381 11.3853 50.8568 12.356C50.8754 13.308 50.8848 14.1573 50.8848 14.904L50.8568 19.664C50.8568 19.776 50.8194 19.8507 50.7448 19.888C50.6701 19.9253 50.4834 19.9533 50.1848 19.972C49.9048 19.9907 49.4474 20 48.8128 20Z" fill="black"/>
</svg>
