<svg width="18" height="18" viewBox="0 0 18 18" fill="none" xmlns="http://www.w3.org/2000/svg">
<path d="M11.5677 2.01624C12.637 3.08688 13.3063 4.49225 13.4636 5.99726C13.6209 7.50227 13.2566 9.01565 12.4317 10.2842C12.5757 10.4042 12.6957 10.5362 12.8637 10.6562C13.1037 10.8482 13.4277 11.0882 13.8357 11.3642C14.2437 11.6522 14.5077 11.8322 14.6277 11.9282C15.1317 12.3002 15.5037 12.6122 15.7557 12.8642C16.1397 13.2482 16.4757 13.6442 16.7637 14.0642C17.0637 14.4842 17.2917 14.8922 17.4717 15.3122C17.6397 15.7322 17.7237 16.1282 17.6877 16.5122C17.6637 16.8962 17.5197 17.2202 17.2557 17.4842C16.9917 17.7482 16.6677 17.8922 16.2837 17.9162C15.9117 17.9402 15.5037 17.8682 15.0957 17.6882C14.6757 17.5202 14.2557 17.2802 13.8477 16.9802C13.4277 16.6922 13.0317 16.3562 12.6477 15.9722C12.3957 15.7202 12.0837 15.3482 11.7237 14.8562C11.6037 14.7002 11.4237 14.4362 11.1597 14.0642C10.8957 13.6802 10.6797 13.3802 10.4877 13.1282C10.2957 12.8882 10.1397 12.7082 9.95966 12.5282C8.71412 13.1804 7.29293 13.4181 5.90297 13.2065C4.513 12.995 3.22683 12.3454 2.23166 11.3522C-0.336336 8.77224 -0.336336 4.58424 2.23166 2.01624C2.84441 1.40276 3.57207 0.916078 4.37305 0.584023C5.17402 0.251969 6.03259 0.0810547 6.89966 0.0810547C7.76674 0.0810547 8.62531 0.251969 9.42628 0.584023C10.2273 0.916078 10.9549 1.40276 11.5677 2.01624ZM9.87566 9.64824C10.6596 8.85856 11.0995 7.79097 11.0995 6.67824C11.0995 5.56551 10.6596 4.49792 9.87566 3.70824C9.48605 3.31747 9.02316 3.00743 8.51351 2.79589C8.00386 2.58434 7.45747 2.47545 6.90566 2.47545C6.35385 2.47545 5.80747 2.58434 5.29782 2.79589C4.78817 3.00743 4.32527 3.31747 3.93566 3.70824C3.5449 4.09785 3.23486 4.56074 3.02331 5.07039C2.81176 5.58004 2.70287 6.12643 2.70287 6.67824C2.70287 7.23005 2.81176 7.77644 3.02331 8.28609C3.23486 8.79574 3.5449 9.25863 3.93566 9.64824C4.32527 10.039 4.78817 10.349 5.29782 10.5606C5.80747 10.7721 6.35385 10.881 6.90566 10.881C7.45747 10.881 8.00386 10.7721 8.51351 10.5606C9.02316 10.349 9.48605 10.039 9.87566 9.64824Z" fill="black"/>
</svg>
